# xmcd
#
# Track frame offsets:
#	150
#	106737
#	142392
#
# Disc length: 3454 seconds
#
# Revision: 2
# Processed by: cddbd v1.4PL0 Copyright (c) Steve Scherf et al.
# Submitted via: audiograbber 1.80
#
DISCID=260d7c03
DTITLE=Vince Carabott - Ghana U Hair
DYEAR=1900
DGENRE=
TTITLE0=Zomm 'Il Boghod
TTITLE1=Ir-Re
TTITLE2=Kumpanija Hazina
EXTD=
EXTT0=
EXTT1=
EXTT2=
PLAYORDER=
